<svg viewBox="0 0 50 50"><path d="M27.1 39.2c6.5-1.1 13.1-1.2 19.3-.3V15.8c-1.6-.3-3.1-.5-4.7-.6v18.1c-4.8-.3-9.7-.1-14.5.7v-3.2c3.8-.7 7.6-1 11.4-1v-8.2c-3.8 0-7.5.2-11.4.9v-3.2c3.8-.7 7.6-1 11.4-1v-8.2c-3.8 0-7.5.2-11.4.9V7.8c4.9-.9 9.8-1.2 14.5-.9v4.6c2.6.2 5.3.7 7.8 1.3v30c-7.2-1.4-14.8-1.3-22.4 0v-3.6zM.6 42.8v-30c2.6-.6 5.2-1 7.8-1.3V6.9c4.8-.3 9.7 0 14.5.9V11c-3.8-.6-7.6-.9-11.4-.9v8.2c3.8 0 7.5.3 11.4 1v3.2c-3.8-.6-7.6-.9-11.4-.9v8.2c3.8 0 7.5.3 11.4 1V34c-4.9-.8-9.8-1.1-14.5-.7V15.2l-4.7.6v23.1c6.3-.9 12.8-.8 19.3.3v3.6c-7.6-1.4-15.2-1.4-22.4 0z"/></svg>