<svg viewBox="0 0 1340 300">
<g class="title__small-letter" >
    <path d="M101.9,159.9c-0.1,1.1,0.1,2.1,0.4,3.2c0.2,0.6,0.8,1.1,1.4,1.3c1.1,0.3,2.3,0.4,3.4,0.3h4.9c3.5,0.1,7-1,9.8-3.2
        c2.7-2.2,4.6-5.3,5.3-8.6c0.1-0.2,0.2-0.2,0.5-0.2c0.3,0,0.4,0.1,0.4,0.3c-0.5,5.1-0.7,9.3-0.7,12.7c0,0.3-0.1,0.7-0.2,0.9
        c-0.3,0.2-0.6,0.3-1,0.3h-38c-0.1,0-0.2-0.2-0.2-0.5s0.1-0.5,0.2-0.5c1.3,0.1,2.7-0.1,4-0.4c0.8-0.2,1.4-0.8,1.7-1.6
        c0.4-1.2,0.5-2.4,0.4-3.6v-37.6c0.1-1.2-0.1-2.4-0.4-3.6c-0.3-0.8-1-1.3-1.8-1.6c-1.3-0.4-2.7-0.5-4-0.4c-0.1,0-0.2-0.2-0.2-0.5
        s0.1-0.5,0.2-0.5l4.1,0.1c2.4,0.1,4.3,0.2,5.8,0.2c1.6,0,3.6-0.1,6-0.2l4.1-0.1c0.2,0,0.2,0.2,0.2,0.5s-0.1,0.5-0.2,0.5
        c-1.3-0.1-2.7,0.1-3.9,0.4c-0.8,0.2-1.4,0.8-1.7,1.6c-0.4,1.2-0.5,2.4-0.4,3.6L101.9,159.9z"/>
    <path d="M172.5,154c0.2,0,0.3,0,0.4,0.1c0.1,0.1,0.2,0.1,0.2,0.2c-0.5,3.7-0.8,7.5-0.8,11.3c0,0.3-0.1,0.7-0.2,0.9
        c-0.3,0.2-0.6,0.3-1,0.3h-35.2c-0.2,0-0.2-0.2-0.2-0.5c0-0.3,0.1-0.5,0.2-0.5c1.3,0.1,2.7-0.1,4-0.4c0.8-0.2,1.4-0.8,1.7-1.6
        c0.4-1.2,0.5-2.4,0.4-3.6v-37.6c0.1-1.2-0.1-2.4-0.4-3.6c-0.3-0.8-1-1.3-1.8-1.6c-1.3-0.4-2.7-0.5-4-0.4c-0.2,0-0.2-0.2-0.2-0.5
        s0.1-0.5,0.2-0.5h33.8c0.5,0,0.8,0.2,0.8,0.7l0.2,10.6c0,0.1-0.1,0.2-0.4,0.2s-0.5,0-0.5-0.2c-1.3-6.2-5.1-9.3-11.3-9.3h-3.2
        c-1.5-0.1-2.9,0.2-4.1,1.1c-0.9,1-1.4,2.3-1.2,3.6v16.6h7.8c6,0,8.9-2,8.9-6c0-0.2,0.1-0.2,0.4-0.2s0.4,0.1,0.4,0.2l-0.1,7.1
        l0.1,3.8c0.1,1.7,0.2,3.1,0.2,4.2c0,0.1-0.2,0.2-0.5,0.2s-0.5-0.1-0.5-0.2c0-4.7-3-7-9.1-7h-7.7v18.4c0,1.8,0.3,3,1,3.7
        c0.7,0.7,1.9,1.1,3.6,1.1h4c7.3,0,11.9-3.5,13.8-10.6C172.2,154,172.3,154,172.5,154z"/>
    <path d="M195,130c1,1.5,2.3,2.9,3.7,4c1.5,1.1,3.5,2.5,6.1,4.1c2.8,1.7,4.9,3.2,6.5,4.5c1.6,1.3,3,2.8,4.1,4.6
        c1.1,1.9,1.7,4.1,1.7,6.4c0,2.6-0.7,5.2-2.1,7.4c-1.5,2.2-3.6,4-6.1,5.1c-2.8,1.3-5.9,1.9-9,1.8c-2.4,0-4.7-0.3-7-0.9
        c-1.9-0.4-3.8-1.1-5.5-2.2c-0.5-0.4-0.8-0.9-0.8-1.5l-0.5-12.4v-0.1c0-0.2,0.1-0.3,0.4-0.4s0.4,0.1,0.5,0.3c1.5,3.9,3.6,7.7,6.1,11
        c2.1,2.8,5.4,4.4,8.8,4.3c2.1,0.1,4.2-0.6,5.9-1.9c1.6-1.3,2.4-3.4,2.4-6.4c0-2.2-0.5-4.3-1.6-6.3c-1-1.7-2.3-3.2-3.9-4.5
        c-1.5-1.2-3.6-2.7-6.3-4.4s-4.7-3.2-6.1-4.3c-1.5-1.2-2.8-2.7-3.7-4.3c-1.1-1.8-1.6-3.9-1.5-6c-0.1-2.6,0.8-5.1,2.4-7.1
        c1.6-2,3.7-3.5,6.1-4.3c2.5-0.9,5.2-1.4,7.9-1.4c1.9,0,3.7,0.2,5.5,0.5c1.6,0.3,3.1,0.7,4.6,1.3c0.4,0.1,0.7,0.3,1,0.6
        c0.2,0.3,0.3,0.6,0.2,0.9l0.2,11c0,0.2-0.1,0.3-0.4,0.4s-0.5,0-0.5-0.2c-1-3.2-2.5-6.2-4.4-9c-1.8-2.7-4.9-4.2-8.2-4
        c-2.1-0.1-4.2,0.6-5.8,2.1c-1.5,1.5-2.3,3.6-2.1,5.8C193.5,126.4,194,128.3,195,130z"/>
</g>
<path class="title__big-letter" stroke-dasharray="1400" stroke-dashoffset="1400" d="M195,7c13.5,2.3,24.3,5.6,32.3,9.7c1.8,0.7,3.3,2,4.4,3.5c0.9,2,1.6,4.2,1.9,6.4l4.6,50.1c0,0.8-0.7,1.3-2.1,1.4
    s-2.2-0.2-2.5-1c-7.2-21.5-18.9-37.6-35.2-48.2s-35.9-16-58.8-16c-20.2,0-37.7,4.6-52.6,13.9S60.6,49.1,52.7,66
    c-7.9,16.8-11.8,36.3-11.8,58.4c0,25.7,5,49.3,14.9,70.8c9.9,21.5,23.4,38.6,40.4,51.1c17,12.6,35.5,18.8,55.7,18.8
    c39.7,0,68.2-22.8,85.3-68.3c0-0.8,0.6-1.2,1.7-1.2c0.8,0,1.6,0.1,2.3,0.4c0.7,0.3,1,0.7,1,1.2l-5.8,50.1c-0.6,3.3-1.2,5.5-1.9,6.4
    c-0.7,0.9-2.3,2-4.8,3.1c-24.8,9.8-51.2,14.9-77.8,14.9c-33.4,0-61.3-6.7-83.6-20.1S29.5,221.2,19,200.5
    c-10.3-20.1-15.7-42.4-15.7-65c0-25.7,7.1-48.5,21.3-68.5s33-35.6,56.3-46.8C104.3,9,129.8,3.3,155.7,3.5C168.8,3.5,182,4.7,195,7z"
    />
<path class="title__big-letter" stroke-dasharray="700" stroke-dashoffset="700" d="M410.9,216.5c0,0.9-0.4,1.3-1.1,1.3c-2.7,0-7.1-0.1-13.2-0.4c-6.1-0.3-10.5-0.4-13.2-0.4c-3.6,0-7.9,0.1-12.8,0.4
    c-4.9,0.3-8.7,0.4-11.5,0.4c-0.6,0-0.9-0.4-0.9-1.3s0.3-1.3,0.9-1.3c4.2,0,7.2-0.5,9.2-1.4c1.9-0.8,3-2.6,2.9-4.6
    c0-2.2-1.2-5.8-3.7-11l-23.4-47.4H305l-16.7,37.4c-1.7,3.7-2.6,7.6-2.8,11.6c0,5,1.8,8.9,5.4,11.5c3.6,2.6,8.7,3.9,15.1,3.9
    c0.7,0,1.1,0.4,1.1,1.3s-0.4,1.3-1.1,1.3c-2.6,0-6.3-0.1-11.3-0.4c-5.5-0.3-10.2-0.4-14.3-0.4c-3.9,0-8.4,0.1-13.6,0.4
    c-4.6,0.3-8.5,0.5-11.5,0.5c-0.7,0-1.1-0.4-1.1-1.3s0.4-1.3,1.1-1.3c3.5,0.1,7.1-0.7,10.2-2.4c2.7-1.6,5.4-4.4,8-8.5
    c3.5-5.9,6.6-12,9.3-18.3l46.5-104.7c0.3-0.4,0.9-0.7,2-0.7c1,0,1.6,0.2,1.7,0.7l53,106.8c5,10.4,9.3,17.5,12.6,21.3
    c3.4,3.8,7,5.7,10.9,5.7C410.5,215.2,410.9,215.6,410.9,216.5z M307.5,145.3h34.2l-18-36.3L307.5,145.3z"/>
<path class="title__big-letter" stroke-dasharray="1500" stroke-dashoffset="1500" d="M914.6,243c-17.8,8.8-36.1,16.5-54.9,23c-37.5,12.9-76.7,20.6-116,20.9c-19.6,0.2-39.1-1.8-58.2-6.1
    c-19-4.3-37.5-10.7-55.1-19c-17.6-8.2-35.7-17.6-51.4-29c-7.9-5.7-17.7-14.6-25-21c-3.6-3.2-11.8-11.3-13.5-13
    c0,0-6.9-7.9-10.7-12.8c-8-10.3-17.9-24.5-29.7-42.7c6.3-3.6,11.7-8.6,15.8-14.7c3.9-5.7,6-12.4,6.1-19.3c0-8.7-3.5-15.4-10.4-20.1
    c-6.9-4.7-16.8-7.1-29.6-7.1c-2.9,0-5.6,0.1-8,0.2c-2.4,0.1-4.5,0.3-6.3,0.4c-4.8,0.4-9.3,0.7-13.6,0.7c-3.9,0-9-0.1-15.4-0.4
    l-11.3-0.2c-0.3,0-0.4,0.4-0.4,1.3s0.1,1.3,0.4,1.3c4.8,0,8.3,0.4,10.6,1.2c2.1,0.6,3.8,2.2,4.6,4.2c0.8,2,1.2,5.2,1.2,9.5v100.1
    c0,4.3-0.4,7.5-1.3,9.6c-0.8,2-2.5,3.6-4.6,4.2c-2.2,0.7-5.8,1.1-10.7,1.1c-0.4,0-0.6,0.4-0.6,1.3c0,0.9,0.2,1.3,0.6,1.3
    c4.8,0,8.5-0.1,11.3-0.2l15.6-0.2l16,0.2c2.6,0.1,6.3,0.2,11,0.2c0.3,0,0.4-0.4,0.4-1.3s-0.1-1.3-0.4-1.3c-4.9,0-8.5-0.4-10.7-1.1
    c-2.1-0.6-3.8-2.1-4.5-4.1c-0.8-2-1.2-5.2-1.2-9.7v-50.6c2.2,0.1,5.9,0.2,11.3,0.2c2.4,0,4.8-0.2,7.1-0.6c13,21.6,24,38.5,33,50.5
    c3.4,4.6,7.2,9.1,11.1,13.3c18.9,19.9,36.1,31.7,45.9,37.6c15.5,9.3,32.7,16.6,51.6,24.4c18.9,7.8,38.5,13.6,58.6,17.3
    c20,3.6,40.4,4.8,60.7,3.8c40.4-1.9,80-11.4,117.4-25.8c18.7-7.3,36.8-15,54.4-24.6C916,245.5,915,242.8,914.6,243z M477.2,144.6
    c-4.2,0.1-8.4-0.2-12.5-0.9v-43c0-5.6,1-9.4,2.9-11.5c1.9-2,5.5-3,10.7-3c7.1,0,12.5,2.3,16.4,6.8c3.9,4.5,5.8,12.7,5.8,24.3
    c0,10.4-1.7,17.5-5.2,21.4C491.9,142.7,485.8,144.6,477.2,144.6L477.2,144.6z"/>
<path class="title__big-letter" stroke-dasharray="1200" stroke-dashoffset="1200" d="M755.4,216.5c0,0.9-0.2,1.3-0.4,1.3c-4.8,0-8.6-0.1-11.5-0.2l-15.6-0.2l-15.1,0.2c-2.6,0.1-6.3,0.2-11,0.2
    c-0.3,0-0.4-0.4-0.4-1.3s0.1-1.3,0.4-1.3c6.3,0,10.6-0.7,12.8-2.2c2.2-1.4,3.2-4.5,3.2-9.1l-0.2-3.7l-4.3-91.7l-46.1,107.7
    c-0.3,0.6-1,1-1.7,0.9c-0.7,0-1.4-0.3-2-0.9l-54.1-106.9l-2,82.2c-0.1,7.6,1.3,13.5,4.4,17.5s7.8,6.1,14,6.1c0.4,0,0.7,0.4,0.7,1.3
    s-0.2,1.3-0.7,1.3c-3.9,0-6.9-0.1-9.1-0.2l-11.9-0.2l-12.8,0.2c-2.2,0.1-5.2,0.2-9.1,0.2c-0.4,0-0.7-0.4-0.7-1.3s0.2-1.3,0.7-1.3
    c5.9,0,10.5-2,13.7-6.1s4.9-9.9,5.1-17.5l2-93c-2.6-4.6-5.4-8-8.5-10.2c-3.1-2.2-6.9-3.3-10.7-3.2c-0.4,0-0.7-0.4-0.7-1.3
    s0.2-1.3,0.7-1.3l9.3,0.2c1.9,0.1,4.3,0.2,7.3,0.2l10.1-0.2c1.4-0.2,2.9-0.2,4.3-0.2c1.7-0.1,3.4,0.7,4.5,2.1c2.1,2.9,3.9,6,5.4,9.2
    l47.6,92.8l43-98.6c0.6-1.6,1.6-3,2.8-4.2c1.1-0.8,2.4-1.2,3.7-1.2c1,0,2.3,0.1,3.9,0.2s3.5,0.2,5.8,0.2l11.7-0.3
    c1.9-0.1,4.7-0.2,8.4-0.2c0.3,0,0.4,0.4,0.4,1.3c0,0.9-0.1,1.3-0.4,1.3c-6.9,0-11.9,1.3-15,3.8c-3.1,2.5-4.5,6.7-4.2,12.4l5,98.8
    c0.3,4.5,0.8,7.7,1.6,9.7c0.8,2,2.4,3.5,4.4,4.1c2.2,0.7,5.7,1.1,10.6,1.1C755.3,215.2,755.4,215.6,755.4,216.5z"/>
<path class="title__dagger" stroke-dasharray="500" stroke-dashoffset="500" d="M832.7,82.7L821.9,83c-3.8,0.2-7.3,0.3-10.4,0.4c-1.2-2.7-1.3-7.5-1.1-12.7c0.2-6.6,1.7-15.6,1.5-19.4
    c-0.2-1.9-0.7-3.8-1.7-5.5c1.1-1.4,2.1-2.6,2.7-3.2c1.9-1.9,8-7.1,8-7.1s-6.1-5.3-8-7.2s-7.1-9.1-7.1-9.1s-5.2,7.1-7,9
    s-8.1,7.2-8.1,7.2s6.1,5.3,7.9,7.2c0.7,0.7,1.7,1.9,2.8,3.3c-0.9,1.7-1.5,3.5-1.6,5.5c-0.2,3.8,1.2,12.8,1.4,19.4
    c0.2,5.2,0.1,10-1.2,12.7c-2.9-0.1-6.2-0.2-10-0.4l-11.3-0.2c-0.4,0-0.7,0.4-0.7,1.3s0.2,1.3,0.7,1.3c4.9,0,8.5,0.4,10.7,1.2
    c2.1,0.7,3.8,2.2,4.7,4.2c0.9,2.4,1.3,5,1.3,7.6l1.8,79.9c0,0,2.9,25.6,8.7,44.5h0.1c5.7-18.9,8.7-44.5,8.7-44.5l1.8-77.6
    c0-4.3,0.4-7.5,1.2-9.6c0.8-2.1,2.4-3.7,4.5-4.4c2.2-0.9,5.7-1.3,10.5-1.3c0.4,0,0.6-0.4,0.7-1.3C833.4,83.2,833.2,82.8,832.7,82.7z
    "/>
<path class="title__big-letter" stroke-dasharray="600" stroke-dashoffset="600" d="M903.7,218.1c-2.2-0.1-4.9-0.3-8.2-0.4c-3.3-0.1-7.1-0.2-11.3-0.2l-15.4,0.2c-2.7,0.1-6.6,0.2-11.5,0.2
    c-0.3,0-0.4-0.4-0.4-1.3s0.1-1.3,0.4-1.3c4.9,0,8.5-0.4,10.7-1.1c2.1-0.6,3.8-2.2,4.7-4.2c0.9-2.1,1.3-5.3,1.3-9.6V100.3
    c0-4.3-0.4-7.5-1.2-9.5c-0.8-2-2.5-3.6-4.7-4.2c-2.3-0.8-5.8-1.2-10.6-1.2c-0.3,0-0.4-0.4-0.4-1.3s0.1-1.3,0.4-1.3l11.5,0.2
    c6.3,0.3,11.4,0.4,15.1,0.4c5.8,0,11.6-0.2,17.5-0.7c7.2-0.3,12-0.4,14.5-0.4c14.7,0,27.8,2.9,39.2,8.7s20.2,13.6,26.5,23.6
    c6.3,10,9.6,21.7,9.4,33.5c0,14-3.2,26.4-9.7,37.1c-6.3,10.5-15.3,19.1-26.2,24.9c-11.1,5.9-23.5,8.9-36.1,8.8
    C914.8,218.8,909.6,218.6,903.7,218.1z M943.6,207.3c7.7-4.8,13.7-11.8,18.1-21.1s6.5-20.5,6.5-33.5c0.2-11.5-1.9-22.9-6.1-33.6
    c-4.1-10-9.9-17.9-17.4-23.8c-7.5-5.8-16.7-8.9-26.2-8.8c-4.7-0.1-9.4,0.2-14.1,1.1c-3.3,0.7-5.8,2.1-7.3,4c-1.5,1.9-2.3,4.9-2.3,9
    V198c0,5.9,1.5,10.1,4.5,12.6c3,2.5,8.9,3.8,17.7,3.8C926.5,214.6,935.6,212.2,943.6,207.3L943.6,207.3z"/>
<path class="title__big-letter" stroke-dasharray="500" stroke-dashoffset="500" d="M1053.9,211.1c-10.3-6.1-18.7-14.9-24.2-25.5c-5.7-10.8-8.7-22.9-8.5-35.2c0-14.9,3.8-27.6,11.3-38.2
    c7.3-10.4,17.3-18.7,28.9-23.9c11.3-5.2,23.6-8,36-8c13.7,0,25.7,3.2,36.1,9.6c10.1,6.1,18.4,14.9,23.9,25.4
    c5.5,10.3,8.4,21.8,8.3,33.5c0.1,12.8-3.5,25.3-10.4,36.1c-6.9,10.9-16.4,19.9-27.8,26c-11.6,6.3-24.6,9.6-37.7,9.5
    C1076.3,220.5,1064.4,217.4,1053.9,211.1z M1120.3,208.3c6.8-4.7,12.3-11.6,16.2-20.7c4-9.1,5.9-19.9,5.9-32.4
    c0-13.3-2.2-25.2-6.6-35.7c-4.4-10.5-10.7-18.7-18.8-24.7c-8.1-5.9-17.7-8.9-28.7-8.9c-14,0-24.9,5-32.6,15
    c-7.7,10-11.6,23.9-11.6,41.6c0,13.7,2.3,26.1,6.8,37.2c4.5,11.1,10.8,19.8,18.8,26.1c7.7,6.2,17.3,9.5,27.2,9.4
    C1105.3,215.4,1113.5,213,1120.3,208.3L1120.3,208.3z"/>
<path class="title__dot-letter" stroke-dasharray="130" stroke-dashoffset="130" d="M1093.5,173.3c0,0-7.4-10.2-10.1-12.9s-11.3-10.1-11.3-10.1s8.7-7.6,11.4-10.3s9.9-12.7,9.9-12.7s7.4,10.2,10,12.8
    s11.3,10.2,11.3,10.2s-8.6,7.4-11.3,10.1S1093.5,173.3,1093.5,173.3z"/>
<path class="title__big-letter" stroke-dasharray="700" stroke-dashoffset="700" d="M1336.7,216.6c0,0.9-0.2,1.3-0.7,1.3h-34.8c-3.3,0-9.5-6-18.5-18.1c-9-12-20-28.9-33-50.5c-2.4,0.4-4.7,0.7-7.1,0.6
    c-5.3,0-9.1-0.1-11.3-0.2v50.6c0,4.5,0.4,7.7,1.2,9.7c0.8,2,2.5,3.5,4.5,4.1c2.2,0.7,5.8,1.1,10.7,1.1c0.3,0,0.4,0.4,0.4,1.3
    s-0.2,1.3-0.4,1.3c-4.8,0-8.4-0.1-11-0.2l-16-0.2l-15.6,0.2c-2.7,0.1-6.5,0.2-11.3,0.2c-0.4,0-0.7-0.4-0.7-1.3s0.2-1.3,0.7-1.3
    c4.9,0,8.5-0.4,10.7-1.1c2.1-0.6,3.8-2.2,4.7-4.2c0.9-2.1,1.3-5.3,1.3-9.6V100.3c0-4.3-0.4-7.5-1.2-9.5c-0.8-2-2.5-3.6-4.7-4.2
    c-2.3-0.8-5.8-1.2-10.6-1.2c-0.3,0-0.4-0.4-0.4-1.3s0.1-1.3,0.4-1.3l11.3,0.2c6.3,0.3,11.5,0.4,15.4,0.4c4.3,0,8.9-0.2,13.6-0.7
    c1.7-0.1,3.8-0.3,6.3-0.4c2.4-0.1,5.1-0.2,8-0.2c12.8,0,22.7,2.4,29.6,7.1c6.9,4.8,10.4,11.5,10.4,20.1c0,6.9-2.1,13.6-6.1,19.3
    c-4,6.1-9.5,11.1-15.8,14.7c11.8,18.2,21.7,32.4,29.7,42.7c8,10.3,15.1,17.8,21.3,22.4c6.2,4.6,12.3,6.9,18.2,6.9
    C1336.5,215.3,1336.7,215.8,1336.7,216.6z M1243.9,144.6c8.7,0,14.7-1.9,18.2-5.8c3.4-3.9,5.2-11,5.2-21.4c0-11.7-1.9-19.8-5.8-24.3
    c-3.9-4.5-9.4-6.8-16.4-6.8c-5.2,0-8.8,1-10.7,3s-2.9,5.8-2.9,11.5v43C1235.6,144.3,1239.7,144.6,1243.9,144.6L1243.9,144.6z"/>
</svg>
