<svg viewBox="0 0 2984 251" class="wave">
    <path class="shape" d="M0 8.1l167.9 4.5c31.1 2.5 75.4 2 104.1 0 28.8-2 101.8-2.6 129 1.7s35.7 9.8 64.5 8.3C494.2 21 523 29 533.1 33s24.9 17 54.4 23 59.8 17 75.4 19.5c15.5 2.5 77.7 19.5 106.5 22s120.4 5.5 162.4 14 56.7-4 101.8 5 111.1 22.5 152.3 21.5 76.9-2.9 120.4.1c43.5 2.9 83.1 12.4 97.1 11.9s65.3-7.5 88.6-6 123.6-3 152.3-1.5 104.1 1.5 139.1 3.5 39.6 9 58.3 13 44.3 10.5 55.2 14 23.3 5 41.2 9 40.4 11 62.9 11 36.5 6 94.8 4.5 363.7-22.5 447.6-12.5 181.1 35.5 263.4 47 108.8-8.5 177.2-4.5v25H0V8.1z" />
    <path class="line" d="M0 5.1l167.9 4.5c31.1 2.5 75.4 2 104.1 0 28.8-2 101.8-2.6 129 1.7s35.7 9.8 64.5 8.3C494.2 18 523 26 533.1 30s24.9 17 54.4 23 59.8 17 75.4 19.5c15.5 2.5 77.7 19.5 106.5 22s120.4 5.5 162.4 14 56.7-4 101.8 5 111.1 22.5 152.3 21.5 76.9-2.9 120.4.1c43.5 2.9 83.1 12.4 97.1 11.9s65.3-7.5 88.6-6 123.6-3 152.3-1.5 104.1 1.5 139.1 3.5 39.6 9 58.3 13 44.3 10.5 55.2 14 23.3 5 41.2 9 40.4 11 62.9 11 36.5 6 94.8 4.5 363.7-22.5 447.6-12.5 181.1 35.5 263.4 47 108.8-8.5 177.2-4.5" />
</svg>